<svg width="190" height="712" viewBox="0 0 190 712" fill="none" xmlns="http://www.w3.org/2000/svg">
<g clip-path="url(#clip0_26_148863)">
<rect width="190" height="712" fill="#1261B7"/>
<mask id="mask0_26_148863" style="mask-type:alpha" maskUnits="userSpaceOnUse" x="-36" y="117" width="262" height="478">
<rect x="-35.5" y="117.5" width="261" height="477" fill="#648BFF"/>
</mask>
<g mask="url(#mask0_26_148863)">
<g style="mix-blend-mode:overlay">
<path d="M-78.7659 502.041L-79.2813 506.5H-74.7924H-37.0601H-33.509L-33.0883 502.974L-21.8989 409.195H-1.65627L-12.7326 502.026L-13.2664 506.5H-8.76074H28.9717H32.5097L32.9418 502.988L44.4826 409.195H73.5975H77.4801L77.5957 405.314L78.684 368.78L78.8067 364.661H74.6858H50.4987L54.3159 330.7H75.4114H79.2973L79.4097 326.816L80.4983 289.196L80.6174 285.08H76.5H61.773L70.6761 209.971L71.2061 205.5H66.7039H28.6087H25.0387L24.6344 209.047L15.9686 285.08H-4.25858L4.64471 209.971L5.17467 205.5H0.672516H-37.7857H-41.3557L-41.76 209.047L-50.426 285.08H-81.3231H-85.2467L-85.3224 289.003L-86.048 326.623L-86.1267 330.7H-82.0488H-57.9L-62.0109 364.661H-82.4116H-86.2942L-86.4098 368.541L-87.4982 405.076L-87.6209 409.195H-83.5H-68.0342L-78.7659 502.041ZM8.49466 330.7L4.38372 364.661H-16.1812L-11.7766 330.7H8.49466Z" stroke="white" stroke-width="8"/>
</g>
<g style="mix-blend-mode:overlay" filter="url(#filter0_d_26_148863)">
<path d="M106.774 505V509H110.774H274.485H278.485V505V454.26V450.26H274.485H190.25L243.357 370.894C243.359 370.892 243.361 370.889 243.363 370.886C250.856 359.767 257.836 349.16 264.301 339.065C271.156 328.509 276.582 317.661 280.561 306.52C284.867 295.192 287 282.969 287 269.889C287 243.07 279.555 221.677 264.181 206.276C248.989 190.535 226.63 183 197.855 183C176.452 183 158.718 187.359 144.973 196.429C131.362 205.153 121.426 217.302 115.196 232.748C109.034 247.769 106 264.822 106 283.833V300.488V304.488H110H172.698H176.698V300.488V284.995C176.698 277.231 177.322 270.295 178.54 264.164C179.956 258.309 182.356 253.876 185.59 250.639C188.52 247.706 192.807 246.001 199.016 246.001C204.134 246.001 207.855 247.751 210.634 251.127C213.397 254.486 215.141 260.103 215.141 268.727C215.141 277.256 213.561 285.395 210.403 293.174L210.383 293.224L210.364 293.275C207.376 301.25 203.381 309.129 198.363 316.913L198.338 316.952L198.314 316.991C193.44 324.949 188.178 333.169 182.528 341.652L182.516 341.67L182.504 341.688L107.421 457.114L106.774 458.108V459.295V505Z" stroke="white" stroke-width="8" shape-rendering="crispEdges"/>
</g>
<g style="mix-blend-mode:overlay">
<path d="M106.774 505V509H110.774H274.485H278.485V505V454.26V450.26H274.485H190.25L243.357 370.894C243.359 370.892 243.361 370.889 243.363 370.886C250.856 359.767 257.836 349.16 264.301 339.065C271.156 328.509 276.582 317.661 280.561 306.52C284.867 295.192 287 282.969 287 269.889C287 243.07 279.555 221.677 264.181 206.276C248.989 190.535 226.63 183 197.855 183C176.452 183 158.718 187.359 144.973 196.429C131.362 205.153 121.426 217.302 115.196 232.748C109.034 247.769 106 264.822 106 283.833V300.488V304.488H110H172.698H176.698V300.488V284.995C176.698 277.231 177.322 270.295 178.54 264.164C179.956 258.309 182.356 253.876 185.59 250.639C188.52 247.706 192.807 246.001 199.016 246.001C204.134 246.001 207.855 247.751 210.634 251.127C213.397 254.486 215.141 260.103 215.141 268.727C215.141 277.256 213.561 285.395 210.403 293.174L210.383 293.224L210.364 293.275C207.376 301.25 203.381 309.129 198.363 316.913L198.338 316.952L198.314 316.991C193.44 324.949 188.178 333.169 182.528 341.652L182.516 341.67L182.504 341.688L107.421 457.114L106.774 458.108V459.295V505Z" stroke="white" stroke-width="8"/>
</g>
<g style="mix-blend-mode:overlay" filter="url(#filter1_d_26_148863)">
<path d="M-78.7659 502.041L-79.2813 506.5H-74.7924H-37.0601H-33.509L-33.0883 502.974L-21.8989 409.195H-1.65627L-12.7326 502.026L-13.2664 506.5H-8.76074H28.9717H32.5097L32.9418 502.988L44.4826 409.195H73.5975H77.4801L77.5957 405.314L78.684 368.78L78.8067 364.661H74.6858H50.4987L54.3159 330.7H75.4114H79.2973L79.4097 326.816L80.4983 289.196L80.6174 285.08H76.5H61.773L70.6761 209.971L71.2061 205.5H66.7039H28.6087H25.0387L24.6344 209.047L15.9686 285.08H-4.25858L4.64471 209.971L5.17467 205.5H0.672516H-37.7857H-41.3557L-41.76 209.047L-50.426 285.08H-81.3231H-85.2467L-85.3224 289.003L-86.048 326.623L-86.1267 330.7H-82.0488H-57.9L-62.0109 364.661H-82.4116H-86.2942L-86.4098 368.541L-87.4982 405.076L-87.6209 409.195H-83.5H-68.0342L-78.7659 502.041ZM8.49466 330.7L4.38372 364.661H-16.1812L-11.7766 330.7H8.49466Z" stroke="white" stroke-width="8" shape-rendering="crispEdges"/>
</g>
<g style="mix-blend-mode:overlay">
<path d="M24.452 184.77V158.85H29.732V181.186H35.812V184.77H24.452ZM38.2958 184.77V158.85H49.5918V162.498H43.5758V169.378H48.2158V173.058H43.5758V181.186H49.6558V184.77H38.2958ZM56.007 184.77L51.079 158.85H55.655L58.727 176.77L61.607 158.85H66.375L61.447 184.77H56.007ZM69.0458 184.77V158.85H80.3418V162.498H74.3258V169.378H78.9658V173.058H74.3258V181.186H80.4058V184.77H69.0458ZM83.077 184.77V158.85H88.357V181.186H94.437V184.77H83.077Z" fill="white"/>
</g>
</g>
</g>
<defs>
<filter id="filter0_d_26_148863" x="102" y="179" width="197" height="342" filterUnits="userSpaceOnUse" color-interpolation-filters="sRGB">
<feFlood flood-opacity="0" result="BackgroundImageFix"/>
<feColorMatrix in="SourceAlpha" type="matrix" values="0 0 0 0 0 0 0 0 0 0 0 0 0 0 0 0 0 0 127 0" result="hardAlpha"/>
<feOffset dx="8" dy="8"/>
<feComposite in2="hardAlpha" operator="out"/>
<feColorMatrix type="matrix" values="0 0 0 0 0 0 0 0 0 0 0 0 0 0 0 0 0 0 0.25 0"/>
<feBlend mode="normal" in2="BackgroundImageFix" result="effect1_dropShadow_26_148863"/>
<feBlend mode="normal" in="SourceGraphic" in2="effect1_dropShadow_26_148863" result="shape"/>
</filter>
<filter id="filter1_d_26_148863" x="-91.7419" y="201.5" width="184.477" height="317" filterUnits="userSpaceOnUse" color-interpolation-filters="sRGB">
<feFlood flood-opacity="0" result="BackgroundImageFix"/>
<feColorMatrix in="SourceAlpha" type="matrix" values="0 0 0 0 0 0 0 0 0 0 0 0 0 0 0 0 0 0 127 0" result="hardAlpha"/>
<feOffset dx="8" dy="8"/>
<feComposite in2="hardAlpha" operator="out"/>
<feColorMatrix type="matrix" values="0 0 0 0 0 0 0 0 0 0 0 0 0 0 0 0 0 0 0.25 0"/>
<feBlend mode="normal" in2="BackgroundImageFix" result="effect1_dropShadow_26_148863"/>
<feBlend mode="normal" in="SourceGraphic" in2="effect1_dropShadow_26_148863" result="shape"/>
</filter>
<clipPath id="clip0_26_148863">
<rect width="190" height="712" fill="white"/>
</clipPath>
</defs>
</svg>
